<?xml version="1.0" encoding="utf-8"?>
<!-- Generator: Adobe Illustrator 23.0.5, SVG Export Plug-In . SVG Version: 6.00 Build 0)  -->
<svg version="1.1" id="Layer_1" width="245" height="47" xmlns="http://www.w3.org/2000/svg" xmlns:xlink="http://www.w3.org/1999/xlink" x="0px" y="0px"
	 viewBox="0 0 200 46" style="enable-background:new 0 0 200 46;" xml:space="preserve">
<style type="text/css">
	.st0{clip-path:url(#SVGID_2_);fill:#374750;}
	.st1{clip-path:url(#SVGID_2_);fill:#1AB29A;}
	.st2{clip-path:url(#SVGID_2_);fill:#4F4E51;}
</style>
<g>
	<defs>
		<rect id="SVGID_1_" width="200" height="46"/>
	</defs>
	<clipPath id="SVGID_2_">
		<use xlink:href="#SVGID_1_"  style="overflow:visible;"/>
	</clipPath>
	<path class="st0" d="M61,10.8V33h-4.8v-3.2c-1.7,2.4-4.3,3.8-7.8,3.8c-6,0-11-5.1-11-11.7c0-6.6,5-11.7,11-11.7
		c3.5,0,6.1,1.4,7.8,3.7v-3.1H61z M56.2,21.9c0-4.1-3-7.1-7-7.1c-4,0-7,3-7,7.1s3,7.1,7,7.1C53.2,29,56.2,26,56.2,21.9"/>
	<path class="st0" d="M75.8,10.4v5.2c-3.2-0.2-6.8,1.2-6.8,6.2V33h-4.8V10.8H69v3.7C70.3,11.5,73,10.4,75.8,10.4"/>
	<path class="st0" d="M92.7,15.4v-4.6h-5.5v-6h-4.8v6h-4.1v4.6h4.1v10.6c0,5.8,2.9,7.8,10.3,6.9v-4.3c-3.6,0.2-5.5,0.2-5.5-2.6V15.4
		H92.7z"/>
	<path class="st0" d="M119.2,10.8V32c0,6.9-5.5,10.4-11.3,10.4c-5,0-8.7-1.9-10.5-5.4l3.4-1.9c1,2.1,2.9,3.7,7.2,3.7
		c4.6,0,7.4-2.6,7.4-6.8v-3.1c-1.8,2.7-4.6,4.4-8.3,4.4c-6.3,0-11.3-5.1-11.3-11.6c0-6.4,5-11.5,11.3-11.5c3.7,0,6.6,1.7,8.3,4.4
		v-3.8H119.2z M115.3,21.8c0-4.4-3.4-7.9-7.9-7.9c-4.5,0-7.9,3.4-7.9,7.9c0,4.5,3.4,7.9,7.9,7.9C111.9,29.7,115.3,26.2,115.3,21.8"
		/>
	<polygon class="st0" points="183.6,21.5 194.2,10.8 189.2,10.8 179.6,20.6 179.6,4.8 175.8,4.8 175.8,33 179.6,33 179.6,22.5 
		189.7,33 194.5,33 	"/>
	<path class="st1" d="M160.7,20.3l3.4,3.4l0.1,0.1h9.8v-3.5h-2.6c-0.7-5.5-4.9-10-10.9-10c-6.3,0-10.8,4.3-11.5,10h-2.9
		c-0.7-5.5-4.9-10-10.9-10c-6.3,0-10.8,4.3-11.5,10h-2.5v3.5h2.5c0.8,5.7,5.3,9.8,11.8,9.8c4.4,0,7.8-2,9.8-5l-3.3-1.9
		c-1.1,1.8-3.3,3.2-6.4,3.2c-4.1,0-7.2-2.2-8-6.2l-0.1-0.3c-0.2-0.9-0.2-1.9,0-2.8l0.1-0.4c0.6-3.8,3.5-6.4,7.7-6.4
		c3.3,0,6.5,2,7.1,6.4h-6.6l0,0l3.4,3.4l0.1,0.1h9.9c0.8,5.7,5.3,9.8,11.8,9.8c4.4,0,7.8-2,9.8-5l-3.3-1.9c-1.1,1.8-3.3,3.2-6.4,3.2
		c-4.1,0-7.2-2.2-8-6.2l-0.1-0.4c-0.2-0.8-0.2-1.7,0-2.5l0.1-0.5c0.6-3.8,3.5-6.4,7.7-6.4c3.3,0,6.5,2,7.1,6.4L160.7,20.3
		L160.7,20.3z"/>
	<path class="st1" d="M38.1,10.7H14.6l-1.8-6H4.2L1.8,9.3l7.5,0.1L16,30.5c0.5,1.7,2.1,2.9,3.9,2.9h10.4l2.4-4.7H20.3l-4.2-13.4
		h19.6L38.1,10.7z"/>
	<path class="st2" d="M122.1,42.3l0.5-2.2c0-0.1,0-0.1,0-0.1l-1.5-3.3h0.6c0.7,1.6,1.1,2.5,1.3,2.9c0.3-0.3,1.7-1.9,2.5-2.9h0.7
		l-3,3.4c0,0,0,0.1-0.1,0.1l-0.4,2.1H122.1z"/>
	<path class="st2" d="M129,40.1c0,1.2-0.7,2.3-2.3,2.3c-1.1,0-1.8-0.8-1.8-1.8c0-1.2,0.8-2.4,2.3-2.4C128.4,38.2,129,39.1,129,40.1
		 M125.5,40.5c0,0.8,0.5,1.4,1.3,1.4c1.1,0,1.6-1,1.6-1.8c0-0.8-0.4-1.4-1.3-1.4C126.1,38.7,125.5,39.6,125.5,40.5"/>
	<path class="st2" d="M133,41.2c-0.1,0.4-0.2,0.7-0.2,1.1h-0.6c0-0.1,0.1-0.5,0.1-0.8c-0.3,0.5-0.6,0.9-1.6,0.9
		c-0.9,0-1.4-0.5-1.2-1.7l0.5-2.4h0.6l-0.5,2.3c-0.1,0.6-0.1,1.3,0.7,1.3c0.9,0,1.5-0.6,1.7-1.9l0.4-1.7h0.6L133,41.2z"/>
	<path class="st2" d="M134.5,39.5c0.1-0.4,0.2-0.8,0.2-1.2h0.5c0,0.1-0.1,0.6-0.2,0.9c0.4-0.7,1-1,1.6-1l-0.1,0.6
		c-0.9,0-1.5,0.7-1.8,1.8l-0.4,1.7h-0.6L134.5,39.5z"/>
	<path class="st2" d="M144.7,39.1c0,1.7-1,3.3-3.2,3.3c-1.6,0-2.5-1.1-2.5-2.5c0-1.7,1.1-3.3,3.2-3.3
		C143.7,36.5,144.7,37.6,144.7,39.1 M139.7,39.8c0,1.2,0.6,2.1,1.9,2.1c1.6,0,2.4-1.3,2.4-2.8c0-1.3-0.7-2-1.9-2
		C140.7,37.1,139.7,38.3,139.7,39.8"/>
	<path class="st2" d="M145.7,39.3c0.1-0.3,0.1-0.7,0.2-1h0.6c0,0.3-0.1,0.5-0.1,0.8c0.3-0.4,0.7-0.9,1.6-0.9c0.9,0,1.5,0.5,1.2,1.8
		l-0.5,2.3H148l0.5-2.3c0.2-0.7,0-1.2-0.8-1.2c-0.9,0-1.5,0.8-1.7,1.8l-0.4,1.8H145L145.7,39.3z"/>
	<polygon class="st2" points="149.7,42.3 150.9,36.3 151.5,36.3 150.2,42.3 	"/>
	<path class="st2" d="M152.2,38.3h0.6l-0.8,4h-0.6L152.2,38.3z M152.6,36.3h0.6l-0.2,0.9h-0.6L152.6,36.3z"/>
	<path class="st2" d="M153.7,39.3c0.1-0.3,0.1-0.7,0.2-1h0.6c0,0.3-0.1,0.5-0.1,0.8c0.3-0.4,0.7-0.9,1.6-0.9c0.9,0,1.5,0.5,1.2,1.8
		l-0.5,2.3H156l0.5-2.3c0.2-0.7,0-1.2-0.8-1.2c-0.9,0-1.5,0.8-1.7,1.8l-0.4,1.8h-0.6L153.7,39.3z"/>
	<path class="st2" d="M158.4,40.4c0,0,0,0.1,0,0.2c0,0.9,0.5,1.3,1.2,1.3c0.6,0,1-0.2,1.3-0.7h0.6c-0.3,0.7-0.8,1.2-2,1.2
		c-1.1,0-1.7-0.7-1.7-1.8c0-1.2,0.8-2.4,2.3-2.4c1.2,0,1.7,0.8,1.7,1.7c0,0.2,0,0.3-0.1,0.6H158.4z M161.2,40c0,0,0-0.1,0-0.2
		c0-0.6-0.3-1.1-1.2-1.1c-0.8,0-1.4,0.5-1.6,1.3H161.2z"/>
	<path class="st2" d="M165.6,36.7h2.2c1,0,1.8,0.5,1.8,1.5c0,1.2-0.8,1.8-2.3,1.8h-1.8l-0.5,2.3h-0.6L165.6,36.7z M165.6,39.4h1.7
		c0.9,0,1.7-0.3,1.7-1.2c0-0.7-0.5-1-1.3-1h-1.6L165.6,39.4z"/>
	<path class="st2" d="M173.2,41.1c-0.1,0.6-0.2,1-0.2,1.2h-0.6c0-0.2,0.1-0.4,0.1-0.7c-0.3,0.5-0.7,0.8-1.6,0.8
		c-1,0-1.4-0.6-1.4-1.1c0-1.2,1.4-1.4,2.1-1.4c0.3,0,0.9,0,1.3,0l0-0.1c0.1-0.5,0-1-1-1c-0.8,0-1.1,0.2-1.3,0.7H170
		c0.1-0.6,0.6-1.2,1.9-1.2c1.3,0,1.7,0.7,1.5,1.5L173.2,41.1z M172.8,40.3c-0.5,0-0.9,0-1.2,0c-0.8,0.1-1.5,0.2-1.5,0.9
		c0,0.4,0.3,0.7,0.9,0.7c1.1,0,1.5-0.6,1.8-1.5L172.8,40.3z"/>
	<path class="st2" d="M174.6,39.5c0.1-0.4,0.2-0.8,0.2-1.2h0.5c0,0.1-0.1,0.6-0.2,0.9c0.4-0.7,1-1,1.6-1l-0.1,0.6
		c-0.9,0-1.5,0.7-1.8,1.8l-0.4,1.7H174L174.6,39.5z"/>
	<path class="st2" d="M177.2,38.3h0.8l0.3-1.3h0.6l-0.3,1.3h1l-0.1,0.5h-1l-0.5,2.4c-0.1,0.5,0,0.7,0.4,0.7c0.2,0,0.4,0,0.5-0.1
		l-0.1,0.5c-0.2,0.1-0.4,0.1-0.6,0.1c-0.7,0-0.9-0.4-0.8-1.1l0.5-2.4h-0.8L177.2,38.3z"/>
	<path class="st2" d="M180,39.3c0.1-0.3,0.1-0.7,0.2-1h0.6c0,0.3-0.1,0.5-0.1,0.8c0.3-0.4,0.7-0.9,1.6-0.9c0.9,0,1.5,0.5,1.2,1.8
		l-0.5,2.3h-0.6l0.5-2.3c0.2-0.7,0-1.2-0.8-1.2c-0.9,0-1.5,0.8-1.7,1.8l-0.4,1.8h-0.6L180,39.3z"/>
	<path class="st2" d="M184.7,40.4c0,0,0,0.1,0,0.2c0,0.9,0.5,1.3,1.2,1.3c0.6,0,1-0.2,1.3-0.7h0.6c-0.3,0.7-0.8,1.2-2,1.2
		c-1.1,0-1.7-0.7-1.7-1.8c0-1.2,0.8-2.4,2.3-2.4c1.2,0,1.7,0.8,1.7,1.7c0,0.2,0,0.3-0.1,0.6H184.7z M187.5,40c0,0,0-0.1,0-0.2
		c0-0.6-0.3-1.1-1.2-1.1c-0.8,0-1.4,0.5-1.6,1.3H187.5z"/>
	<path class="st2" d="M189,39.5c0.1-0.4,0.2-0.8,0.2-1.2h0.5c0,0.1-0.1,0.6-0.2,0.9c0.4-0.7,1-1,1.6-1l-0.1,0.6
		c-0.9,0-1.5,0.7-1.8,1.8l-0.4,1.7h-0.6L189,39.5z"/>
	<path class="st2" d="M191.7,41c0.1,0.7,0.6,0.9,1.3,0.9c0.6,0,1.1-0.3,1.1-0.7c0-0.4-0.3-0.6-1.1-0.8c-1.1-0.2-1.4-0.6-1.4-1.1
		c0-0.7,0.6-1.2,1.6-1.2c1.5,0,1.7,0.9,1.7,1.2h-0.6c-0.1-0.3-0.3-0.8-1.2-0.8c-0.6,0-0.9,0.2-0.9,0.6c0,0.3,0.3,0.5,1.1,0.7
		c1.1,0.3,1.5,0.6,1.5,1.2c0,0.7-0.6,1.3-1.8,1.3c-1,0-1.7-0.5-1.8-1.4H191.7z"/>
</g>
</svg>
